<svg width="32" height="32" viewBox="0 0 32 32" fill="none" xmlns="http://www.w3.org/2000/svg">
  <!-- Background Circle -->
  <circle cx="16" cy="16" r="16" fill="url(#gradient)" />
  
  <!-- Book/Learning Icon -->
  <path d="M8 10C8 9.44772 8.44772 9 9 9H14C14.5523 9 15 9.44772 15 10V22C15 22.5523 14.5523 23 14 23H9C8.44772 23 8 22.5523 8 22V10Z" fill="white" opacity="0.9"/>
  <path d="M17 10C17 9.44772 17.4477 9 18 9H23C23.5523 9 24 9.44772 24 10V22C24 22.5523 23.5523 23 23 23H18C17.4477 23 17 22.5523 17 22V10Z" fill="white" opacity="0.9"/>
  
  <!-- Center Binding -->
  <rect x="15" y="9" width="2" height="14" fill="white" opacity="0.7"/>
  
  <!-- Graduation Cap -->
  <path d="M12 6L20 8L12 10L4 8L12 6Z" fill="white"/>
  <path d="M20 8V12C20 13.1046 16.4183 14 12 14C7.58172 14 4 13.1046 4 12V8" stroke="white" stroke-width="0.5" fill="none"/>
  
  <!-- Academic Lines -->
  <line x1="10" y1="12" x2="14" y2="12" stroke="#3B82F6" stroke-width="0.5" opacity="0.8"/>
  <line x1="10" y1="14" x2="14" y2="14" stroke="#3B82F6" stroke-width="0.5" opacity="0.8"/>
  <line x1="18" y1="12" x2="22" y2="12" stroke="#3B82F6" stroke-width="0.5" opacity="0.8"/>
  <line x1="18" y1="14" x2="22" y2="14" stroke="#3B82F6" stroke-width="0.5" opacity="0.8"/>
  
  <!-- Gradient Definition -->
  <defs>
    <linearGradient id="gradient" x1="0%" y1="0%" x2="100%" y2="100%">
      <stop offset="0%" style="stop-color:#3B82F6;stop-opacity:1" />
      <stop offset="50%" style="stop-color:#6366F1;stop-opacity:1" />
      <stop offset="100%" style="stop-color:#8B5CF6;stop-opacity:1" />
    </linearGradient>
  </defs>
</svg>
